# xmcd
#
# Track frame offsets:
#	150
#	22535
#	44922
#	67145
#	102372
#	113710
#	134472
#	155247
#	171985
#	190422
#	210895
#	236297
#
# Disc length: 3372 seconds
#
# Revision: 0
# Processed by: cddbd v1.4PL0 Copyright (c) Steve Scherf et al.
# Submitted via: dBpowerAMP V4.0
#
DISCID=a70d2a0c
DTITLE=Blue Eyed Devils - Hard Luck Town
DYEAR=1900
DGENRE=Blues
TTITLE0=City Boy/Country Blues
TTITLE1=Leaving S.F. Bay Blues
TTITLE2=Get On Track
TTITLE3=Hard Luck Town
TTITLE4=Southbound
TTITLE5=County Jail Blues
TTITLE6=S.S.A. Blues
TTITLE7=Ridin' Down The Highway
TTITLE8=Stoney Blues
TTITLE9=The Blue Eyed Devils Blues
TTITLE10=Won't Be Your Dog
TTITLE11=Rag Mama
EXTD=
EXTT0=
EXTT1=
EXTT2=
EXTT3=
EXTT4=
EXTT5=
EXTT6=
EXTT7=
EXTT8=
EXTT9=
EXTT10=
EXTT11=
PLAYORDER=
